<mxfile host="65bd71144e">
    <diagram id="aZC29gAntfsDg5aTyT4Q" name="Page-1">
        <mxGraphModel dx="381" dy="186" grid="1" gridSize="10" guides="1" tooltips="1" connect="1" arrows="1" fold="1" page="1" pageScale="1" pageWidth="827" pageHeight="1169" math="0" shadow="0">
            <root>
                <mxCell id="0"/>
                <mxCell id="1" parent="0"/>
                <mxCell id="7" value="&lt;font color=&quot;#000000&quot;&gt;Matriz de Responsabilidade&lt;/font&gt;" style="swimlane;whiteSpace=wrap;html=1;rotation=0;startSize=20;labelBackgroundColor=none;swimlaneFillColor=default;fillColor=default;" parent="1" vertex="1">
                    <mxGeometry x="175.75" y="40" width="323.5" height="430" as="geometry">
                        <mxRectangle x="-125.00000000000003" y="365" width="140" height="30" as="alternateBounds"/>
                    </mxGeometry>
                </mxCell>
                <mxCell id="11" value="&lt;span style=&quot;font-family: Helvetica; font-size: 10px; font-style: normal; font-variant-ligatures: normal; font-variant-caps: normal; font-weight: 700; letter-spacing: normal; orphans: 2; text-align: center; text-indent: 0px; text-transform: none; widows: 2; word-spacing: 0px; -webkit-text-stroke-width: 0px; text-decoration-thickness: initial; text-decoration-style: initial; text-decoration-color: initial; float: none; display: inline !important;&quot;&gt;Vitor&lt;br style=&quot;font-size: 10px;&quot;&gt;&lt;/span&gt;" style="text;whiteSpace=wrap;html=1;rotation=0;fontSize=10;labelBackgroundColor=none;fillColor=none;" parent="7" vertex="1">
                    <mxGeometry x="134.25" y="18" width="65" height="20" as="geometry"/>
                </mxCell>
                <mxCell id="17" value="&lt;span style=&quot;font-family: Helvetica; font-size: 10px; font-style: normal; font-variant-ligatures: normal; font-variant-caps: normal; font-weight: 700; letter-spacing: normal; orphans: 2; text-align: center; text-indent: 0px; text-transform: none; widows: 2; word-spacing: 0px; -webkit-text-stroke-width: 0px; text-decoration-thickness: initial; text-decoration-style: initial; text-decoration-color: initial; float: none; display: inline !important;&quot;&gt;Card&lt;br style=&quot;font-size: 10px;&quot;&gt;&lt;/span&gt;" style="text;whiteSpace=wrap;html=1;rotation=0;fontSize=10;labelBackgroundColor=none;fillColor=none;" parent="7" vertex="1">
                    <mxGeometry x="44.25" y="18" width="65" height="20" as="geometry"/>
                </mxCell>
                <mxCell id="9" value="" style="endArrow=none;html=1;" parent="7" edge="1">
                    <mxGeometry width="50" height="50" relative="1" as="geometry">
                        <mxPoint y="46" as="sourcePoint"/>
                        <mxPoint x="324" y="46" as="targetPoint"/>
                    </mxGeometry>
                </mxCell>
                <mxCell id="59" value="&lt;span style=&quot;font-family: Helvetica; font-size: 10px; font-style: normal; font-variant-ligatures: normal; font-variant-caps: normal; font-weight: 700; letter-spacing: normal; orphans: 2; text-align: center; text-indent: 0px; text-transform: none; widows: 2; word-spacing: 0px; -webkit-text-stroke-width: 0px; text-decoration-thickness: initial; text-decoration-style: initial; text-decoration-color: initial; float: none; display: inline !important;&quot;&gt;Henrique&lt;br style=&quot;font-size: 10px;&quot;&gt;&lt;/span&gt;" style="text;whiteSpace=wrap;html=1;rotation=0;fontSize=10;labelBackgroundColor=none;fillColor=none;" vertex="1" parent="7">
                    <mxGeometry x="224.25" y="18" width="65" height="20" as="geometry"/>
                </mxCell>
                <mxCell id="58" value="&lt;span style=&quot;font-family: Helvetica; font-size: 10px; font-style: normal; font-variant-ligatures: normal; font-variant-caps: normal; font-weight: 700; letter-spacing: normal; orphans: 2; text-align: center; text-indent: 0px; text-transform: none; widows: 2; word-spacing: 0px; -webkit-text-stroke-width: 0px; text-decoration-thickness: initial; text-decoration-style: initial; text-decoration-color: initial; float: none; display: inline !important;&quot;&gt;Samuel&lt;br style=&quot;font-size: 10px;&quot;&gt;&lt;/span&gt;" style="text;whiteSpace=wrap;html=1;rotation=0;fontSize=10;labelBackgroundColor=none;fillColor=none;" vertex="1" parent="7">
                    <mxGeometry x="279.25" y="18" width="65" height="20" as="geometry"/>
                </mxCell>
                <mxCell id="57" value="&lt;span style=&quot;font-family: Helvetica; font-size: 10px; font-style: normal; font-variant-ligatures: normal; font-variant-caps: normal; font-weight: 700; letter-spacing: normal; orphans: 2; text-align: center; text-indent: 0px; text-transform: none; widows: 2; word-spacing: 0px; -webkit-text-stroke-width: 0px; text-decoration-thickness: initial; text-decoration-style: initial; text-decoration-color: initial; float: none; display: inline !important;&quot;&gt;Denys&lt;br style=&quot;font-size: 10px;&quot;&gt;&lt;/span&gt;" style="text;whiteSpace=wrap;html=1;rotation=0;fontSize=10;labelBackgroundColor=none;fillColor=none;" vertex="1" parent="7">
                    <mxGeometry x="184.25" y="18" width="65" height="20" as="geometry"/>
                </mxCell>
                <mxCell id="62" value="" style="endArrow=none;html=1;" edge="1" parent="7">
                    <mxGeometry width="50" height="50" relative="1" as="geometry">
                        <mxPoint x="274.5" y="20" as="sourcePoint"/>
                        <mxPoint x="274.25" y="430" as="targetPoint"/>
                    </mxGeometry>
                </mxCell>
                <mxCell id="64" value="" style="endArrow=none;html=1;" edge="1" parent="7">
                    <mxGeometry width="50" height="50" relative="1" as="geometry">
                        <mxPoint x="224.5" y="20" as="sourcePoint"/>
                        <mxPoint x="224.25" y="430" as="targetPoint"/>
                    </mxGeometry>
                </mxCell>
                <mxCell id="65" value="" style="endArrow=none;html=1;" edge="1" parent="7">
                    <mxGeometry width="50" height="50" relative="1" as="geometry">
                        <mxPoint x="184.5" y="20" as="sourcePoint"/>
                        <mxPoint x="184.25" y="430" as="targetPoint"/>
                    </mxGeometry>
                </mxCell>
                <mxCell id="66" value="" style="endArrow=none;html=1;" edge="1" parent="7">
                    <mxGeometry width="50" height="50" relative="1" as="geometry">
                        <mxPoint x="134.5" y="20" as="sourcePoint"/>
                        <mxPoint x="134.25" y="430" as="targetPoint"/>
                    </mxGeometry>
                </mxCell>
                <mxCell id="67" value="" style="endArrow=none;html=1;" edge="1" parent="7">
                    <mxGeometry width="50" height="50" relative="1" as="geometry">
                        <mxPoint x="-0.5" y="70" as="sourcePoint"/>
                        <mxPoint x="323.5" y="70" as="targetPoint"/>
                    </mxGeometry>
                </mxCell>
                <mxCell id="68" value="&lt;span style=&quot;font-family: Helvetica; font-size: 10px; font-style: normal; font-variant-ligatures: normal; font-variant-caps: normal; font-weight: 700; letter-spacing: normal; orphans: 2; text-align: center; text-indent: 0px; text-transform: none; widows: 2; word-spacing: 0px; -webkit-text-stroke-width: 0px; text-decoration-thickness: initial; text-decoration-style: initial; text-decoration-color: initial; float: none; display: inline !important;&quot;&gt;Criar readme Front-end&lt;br style=&quot;font-size: 10px;&quot;&gt;&lt;/span&gt;" style="text;whiteSpace=wrap;html=1;rotation=0;fontSize=10;labelBackgroundColor=none;fillColor=none;" vertex="1" parent="7">
                    <mxGeometry x="1.25" y="44" width="130" height="30" as="geometry"/>
                </mxCell>
                <mxCell id="69" value="" style="endArrow=none;html=1;" edge="1" parent="7">
                    <mxGeometry width="50" height="50" relative="1" as="geometry">
                        <mxPoint x="-0.5" y="97" as="sourcePoint"/>
                        <mxPoint x="323.5" y="97" as="targetPoint"/>
                    </mxGeometry>
                </mxCell>
                <mxCell id="70" value="&lt;span style=&quot;font-family: Helvetica; font-size: 10px; font-style: normal; font-variant-ligatures: normal; font-variant-caps: normal; font-weight: 700; letter-spacing: normal; orphans: 2; text-align: center; text-indent: 0px; text-transform: none; widows: 2; word-spacing: 0px; -webkit-text-stroke-width: 0px; text-decoration-thickness: initial; text-decoration-style: initial; text-decoration-color: initial; float: none; display: inline !important;&quot;&gt;Criar readme Docs&lt;br style=&quot;font-size: 10px;&quot;&gt;&lt;/span&gt;" style="text;whiteSpace=wrap;html=1;rotation=0;fontSize=10;labelBackgroundColor=none;fillColor=none;" vertex="1" parent="7">
                    <mxGeometry x="1.25" y="67" width="130" height="30" as="geometry"/>
                </mxCell>
                <mxCell id="73" value="&lt;span style=&quot;font-family: Helvetica; font-size: 10px; font-style: normal; font-variant-ligatures: normal; font-variant-caps: normal; font-weight: 700; letter-spacing: normal; orphans: 2; text-align: center; text-indent: 0px; text-transform: none; widows: 2; word-spacing: 0px; -webkit-text-stroke-width: 0px; text-decoration-thickness: initial; text-decoration-style: initial; text-decoration-color: initial; float: none; display: inline !important;&quot;&gt;Criar readme Banco de Dados&lt;br style=&quot;font-size: 10px;&quot;&gt;&lt;/span&gt;" style="text;whiteSpace=wrap;html=1;rotation=0;fontSize=10;labelBackgroundColor=none;fillColor=none;" vertex="1" parent="7">
                    <mxGeometry x="1.25" y="120" width="130" height="30" as="geometry"/>
                </mxCell>
                <mxCell id="72" value="&lt;span style=&quot;font-family: Helvetica; font-size: 10px; font-style: normal; font-variant-ligatures: normal; font-variant-caps: normal; font-weight: 700; letter-spacing: normal; orphans: 2; text-align: center; text-indent: 0px; text-transform: none; widows: 2; word-spacing: 0px; -webkit-text-stroke-width: 0px; text-decoration-thickness: initial; text-decoration-style: initial; text-decoration-color: initial; float: none; display: inline !important;&quot;&gt;Criar Repositório&lt;br style=&quot;font-size: 10px;&quot;&gt;&lt;/span&gt;" style="text;whiteSpace=wrap;html=1;rotation=0;fontSize=10;labelBackgroundColor=none;fillColor=none;" vertex="1" parent="7">
                    <mxGeometry x="1.25" y="150" width="130" height="30" as="geometry"/>
                </mxCell>
                <mxCell id="71" value="&lt;span style=&quot;font-family: Helvetica; font-size: 10px; font-style: normal; font-variant-ligatures: normal; font-variant-caps: normal; font-weight: 700; letter-spacing: normal; orphans: 2; text-align: center; text-indent: 0px; text-transform: none; widows: 2; word-spacing: 0px; -webkit-text-stroke-width: 0px; text-decoration-thickness: initial; text-decoration-style: initial; text-decoration-color: initial; float: none; display: inline !important;&quot;&gt;Criar Identidade Visual&lt;br style=&quot;font-size: 10px;&quot;&gt;&lt;/span&gt;" style="text;whiteSpace=wrap;html=1;rotation=0;fontSize=10;labelBackgroundColor=none;fillColor=none;" vertex="1" parent="7">
                    <mxGeometry x="1.25" y="97" width="130" height="30" as="geometry"/>
                </mxCell>
                <mxCell id="74" value="" style="endArrow=none;html=1;" edge="1" parent="7">
                    <mxGeometry width="50" height="50" relative="1" as="geometry">
                        <mxPoint x="1.25" y="120" as="sourcePoint"/>
                        <mxPoint x="325.25" y="120" as="targetPoint"/>
                    </mxGeometry>
                </mxCell>
                <mxCell id="75" value="" style="endArrow=none;html=1;" edge="1" parent="7">
                    <mxGeometry width="50" height="50" relative="1" as="geometry">
                        <mxPoint x="-0.5" y="150" as="sourcePoint"/>
                        <mxPoint x="323.5" y="150" as="targetPoint"/>
                    </mxGeometry>
                </mxCell>
                <mxCell id="76" value="" style="endArrow=none;html=1;" edge="1" parent="7">
                    <mxGeometry width="50" height="50" relative="1" as="geometry">
                        <mxPoint x="-0.5" y="179.49" as="sourcePoint"/>
                        <mxPoint x="323.5" y="179.49" as="targetPoint"/>
                    </mxGeometry>
                </mxCell>
                <mxCell id="77" value="&lt;span style=&quot;font-family: Helvetica; font-size: 10px; font-style: normal; font-variant-ligatures: normal; font-variant-caps: normal; font-weight: 700; letter-spacing: normal; orphans: 2; text-align: center; text-indent: 0px; text-transform: none; widows: 2; word-spacing: 0px; -webkit-text-stroke-width: 0px; text-decoration-thickness: initial; text-decoration-style: initial; text-decoration-color: initial; float: none; display: inline !important;&quot;&gt;Criar readme BackEnd&lt;br style=&quot;font-size: 10px;&quot;&gt;&lt;/span&gt;" style="text;whiteSpace=wrap;html=1;rotation=0;fontSize=10;labelBackgroundColor=none;fillColor=none;" vertex="1" parent="7">
                    <mxGeometry x="1.25" y="180" width="130" height="30" as="geometry"/>
                </mxCell>
                <mxCell id="78" value="&lt;span style=&quot;font-family: Helvetica; font-size: 10px; font-style: normal; font-variant-ligatures: normal; font-variant-caps: normal; font-weight: 700; letter-spacing: normal; orphans: 2; text-align: center; text-indent: 0px; text-transform: none; widows: 2; word-spacing: 0px; -webkit-text-stroke-width: 0px; text-decoration-thickness: initial; text-decoration-style: initial; text-decoration-color: initial; float: none; display: inline !important;&quot;&gt;Criar readme Principal&lt;br style=&quot;font-size: 10px;&quot;&gt;&lt;/span&gt;" style="text;whiteSpace=wrap;html=1;rotation=0;fontSize=10;labelBackgroundColor=none;fillColor=none;" vertex="1" parent="7">
                    <mxGeometry y="200" width="130" height="30" as="geometry"/>
                </mxCell>
                <mxCell id="79" value="&lt;span style=&quot;font-family: Helvetica; font-size: 10px; font-style: normal; font-variant-ligatures: normal; font-variant-caps: normal; font-weight: 700; letter-spacing: normal; orphans: 2; text-align: center; text-indent: 0px; text-transform: none; widows: 2; word-spacing: 0px; -webkit-text-stroke-width: 0px; text-decoration-thickness: initial; text-decoration-style: initial; text-decoration-color: initial; float: none; display: inline !important;&quot;&gt;Desenvolver Wire-Frame&lt;br style=&quot;font-size: 10px;&quot;&gt;&lt;/span&gt;" style="text;whiteSpace=wrap;html=1;rotation=0;fontSize=10;labelBackgroundColor=none;fillColor=none;" vertex="1" parent="7">
                    <mxGeometry y="220" width="130" height="30" as="geometry"/>
                </mxCell>
                <mxCell id="80" value="&lt;span style=&quot;font-family: Helvetica; font-size: 10px; font-style: normal; font-variant-ligatures: normal; font-variant-caps: normal; font-weight: 700; letter-spacing: normal; orphans: 2; text-align: center; text-indent: 0px; text-transform: none; widows: 2; word-spacing: 0px; -webkit-text-stroke-width: 0px; text-decoration-thickness: initial; text-decoration-style: initial; text-decoration-color: initial; float: none; display: inline !important;&quot;&gt;Desenvolver&amp;nbsp; rotas API&lt;br style=&quot;font-size: 10px;&quot;&gt;&lt;/span&gt;" style="text;whiteSpace=wrap;html=1;rotation=0;fontSize=10;labelBackgroundColor=none;fillColor=none;" vertex="1" parent="7">
                    <mxGeometry y="240" width="130" height="30" as="geometry"/>
                </mxCell>
                <mxCell id="81" value="&lt;span style=&quot;font-family: Helvetica; font-size: 10px; font-style: normal; font-variant-ligatures: normal; font-variant-caps: normal; font-weight: 700; letter-spacing: normal; orphans: 2; text-align: center; text-indent: 0px; text-transform: none; widows: 2; word-spacing: 0px; -webkit-text-stroke-width: 0px; text-decoration-thickness: initial; text-decoration-style: initial; text-decoration-color: initial; float: none; display: inline !important;&quot;&gt;Modelar B.D.&lt;br style=&quot;font-size: 10px;&quot;&gt;&lt;/span&gt;" style="text;whiteSpace=wrap;html=1;rotation=0;fontSize=10;labelBackgroundColor=none;fillColor=none;" vertex="1" parent="7">
                    <mxGeometry y="260" width="130" height="30" as="geometry"/>
                </mxCell>
                <mxCell id="82" value="&lt;span style=&quot;font-family: Helvetica; font-size: 10px; font-style: normal; font-variant-ligatures: normal; font-variant-caps: normal; font-weight: 700; letter-spacing: normal; orphans: 2; text-align: center; text-indent: 0px; text-transform: none; widows: 2; word-spacing: 0px; -webkit-text-stroke-width: 0px; text-decoration-thickness: initial; text-decoration-style: initial; text-decoration-color: initial; float: none; display: inline !important;&quot;&gt;Desenvolver Protótipo Figma&lt;br style=&quot;font-size: 10px;&quot;&gt;&lt;/span&gt;" style="text;whiteSpace=wrap;html=1;rotation=0;fontSize=10;labelBackgroundColor=none;fillColor=none;" vertex="1" parent="7">
                    <mxGeometry x="1.25" y="280" width="130" height="30" as="geometry"/>
                </mxCell>
                <mxCell id="83" value="&lt;span style=&quot;font-family: Helvetica; font-size: 10px; font-style: normal; font-variant-ligatures: normal; font-variant-caps: normal; font-weight: 700; letter-spacing: normal; orphans: 2; text-align: center; text-indent: 0px; text-transform: none; widows: 2; word-spacing: 0px; -webkit-text-stroke-width: 0px; text-decoration-thickness: initial; text-decoration-style: initial; text-decoration-color: initial; float: none; display: inline !important;&quot;&gt;Desenvolver Página Login&lt;br style=&quot;font-size: 10px;&quot;&gt;&lt;/span&gt;" style="text;whiteSpace=wrap;html=1;rotation=0;fontSize=10;labelBackgroundColor=none;fillColor=none;" vertex="1" parent="7">
                    <mxGeometry y="310" width="130" height="30" as="geometry"/>
                </mxCell>
                <mxCell id="84" value="&lt;span style=&quot;font-family: Helvetica; font-size: 10px; font-style: normal; font-variant-ligatures: normal; font-variant-caps: normal; font-weight: 700; letter-spacing: normal; orphans: 2; text-align: center; text-indent: 0px; text-transform: none; widows: 2; word-spacing: 0px; -webkit-text-stroke-width: 0px; text-decoration-thickness: initial; text-decoration-style: initial; text-decoration-color: initial; float: none; display: inline !important;&quot;&gt;Criar Jira&lt;br style=&quot;font-size: 10px;&quot;&gt;&lt;/span&gt;" style="text;whiteSpace=wrap;html=1;rotation=0;fontSize=10;labelBackgroundColor=none;fillColor=none;" vertex="1" parent="7">
                    <mxGeometry y="330" width="130" height="30" as="geometry"/>
                </mxCell>
                <mxCell id="85" value="&lt;span style=&quot;font-family: Helvetica; font-size: 10px; font-style: normal; font-variant-ligatures: normal; font-variant-caps: normal; font-weight: 700; letter-spacing: normal; orphans: 2; text-align: center; text-indent: 0px; text-transform: none; widows: 2; word-spacing: 0px; -webkit-text-stroke-width: 0px; text-decoration-thickness: initial; text-decoration-style: initial; text-decoration-color: initial; float: none; display: inline !important;&quot;&gt;Desenvolver RACI&lt;br style=&quot;font-size: 10px;&quot;&gt;&lt;/span&gt;" style="text;whiteSpace=wrap;html=1;rotation=0;fontSize=10;labelBackgroundColor=none;fillColor=none;" vertex="1" parent="7">
                    <mxGeometry y="370" width="130" height="30" as="geometry"/>
                </mxCell>
                <mxCell id="86" value="&lt;span style=&quot;font-family: Helvetica; font-size: 10px; font-style: normal; font-variant-ligatures: normal; font-variant-caps: normal; font-weight: 700; letter-spacing: normal; orphans: 2; text-align: center; text-indent: 0px; text-transform: none; widows: 2; word-spacing: 0px; -webkit-text-stroke-width: 0px; text-decoration-thickness: initial; text-decoration-style: initial; text-decoration-color: initial; float: none; display: inline !important;&quot;&gt;Criar&amp;nbsp; Página Home&lt;br style=&quot;font-size: 10px;&quot;&gt;&lt;/span&gt;" style="text;whiteSpace=wrap;html=1;rotation=0;fontSize=10;labelBackgroundColor=none;fillColor=none;" vertex="1" parent="7">
                    <mxGeometry y="350" width="130" height="30" as="geometry"/>
                </mxCell>
                <mxCell id="87" value="" style="endArrow=none;html=1;" edge="1" parent="7">
                    <mxGeometry width="50" height="50" relative="1" as="geometry">
                        <mxPoint y="200" as="sourcePoint"/>
                        <mxPoint x="324" y="200" as="targetPoint"/>
                    </mxGeometry>
                </mxCell>
                <mxCell id="88" value="" style="endArrow=none;html=1;" edge="1" parent="7">
                    <mxGeometry width="50" height="50" relative="1" as="geometry">
                        <mxPoint x="-1.1200000000000045" y="220" as="sourcePoint"/>
                        <mxPoint x="322.88" y="220" as="targetPoint"/>
                    </mxGeometry>
                </mxCell>
                <mxCell id="89" value="" style="endArrow=none;html=1;" edge="1" parent="7">
                    <mxGeometry width="50" height="50" relative="1" as="geometry">
                        <mxPoint x="0.6299999999999955" y="243" as="sourcePoint"/>
                        <mxPoint x="324.63" y="243" as="targetPoint"/>
                    </mxGeometry>
                </mxCell>
                <mxCell id="90" value="" style="endArrow=none;html=1;" edge="1" parent="7">
                    <mxGeometry width="50" height="50" relative="1" as="geometry">
                        <mxPoint x="0.24999999999999556" y="264" as="sourcePoint"/>
                        <mxPoint x="324.25" y="264" as="targetPoint"/>
                    </mxGeometry>
                </mxCell>
                <mxCell id="91" value="" style="endArrow=none;html=1;" edge="1" parent="7">
                    <mxGeometry width="50" height="50" relative="1" as="geometry">
                        <mxPoint x="0.24999999999999556" y="285" as="sourcePoint"/>
                        <mxPoint x="324.25" y="285" as="targetPoint"/>
                    </mxGeometry>
                </mxCell>
                <mxCell id="92" value="" style="endArrow=none;html=1;" edge="1" parent="7">
                    <mxGeometry width="50" height="50" relative="1" as="geometry">
                        <mxPoint x="0.24999999999999545" y="313" as="sourcePoint"/>
                        <mxPoint x="324.25" y="313" as="targetPoint"/>
                    </mxGeometry>
                </mxCell>
                <mxCell id="95" value="" style="endArrow=none;html=1;" edge="1" parent="7">
                    <mxGeometry width="50" height="50" relative="1" as="geometry">
                        <mxPoint x="1.2499999999998863" y="390" as="sourcePoint"/>
                        <mxPoint x="325.25" y="390" as="targetPoint"/>
                    </mxGeometry>
                </mxCell>
                <mxCell id="94" value="" style="endArrow=none;html=1;" edge="1" parent="7">
                    <mxGeometry width="50" height="50" relative="1" as="geometry">
                        <mxPoint x="-0.5000000000001137" y="370" as="sourcePoint"/>
                        <mxPoint x="323.5" y="370" as="targetPoint"/>
                    </mxGeometry>
                </mxCell>
                <mxCell id="97" value="&lt;span style=&quot;font-family: Helvetica; font-size: 10px; font-style: normal; font-variant-ligatures: normal; font-variant-caps: normal; font-weight: 700; letter-spacing: normal; orphans: 2; text-align: center; text-indent: 0px; text-transform: none; widows: 2; word-spacing: 0px; -webkit-text-stroke-width: 0px; text-decoration-thickness: initial; text-decoration-style: initial; text-decoration-color: initial; float: none; display: inline !important;&quot;&gt;Linkar B.D. - API&lt;br style=&quot;font-size: 10px;&quot;&gt;&lt;/span&gt;" style="text;whiteSpace=wrap;html=1;rotation=0;fontSize=10;labelBackgroundColor=none;fillColor=none;" vertex="1" parent="7">
                    <mxGeometry x="1.25" y="390" width="130" height="30" as="geometry"/>
                </mxCell>
                <mxCell id="98" value="&lt;span style=&quot;font-family: Helvetica; font-size: 10px; font-style: normal; font-variant-ligatures: normal; font-variant-caps: normal; font-weight: 700; letter-spacing: normal; orphans: 2; text-align: center; text-indent: 0px; text-transform: none; widows: 2; word-spacing: 0px; -webkit-text-stroke-width: 0px; text-decoration-thickness: initial; text-decoration-style: initial; text-decoration-color: initial; float: none; display: inline !important;&quot;&gt;Linkar Front-End - API&lt;br style=&quot;font-size: 10px;&quot;&gt;&lt;/span&gt;" style="text;whiteSpace=wrap;html=1;rotation=0;fontSize=10;labelBackgroundColor=none;fillColor=none;" vertex="1" parent="7">
                    <mxGeometry x="1.25" y="410" width="130" height="30" as="geometry"/>
                </mxCell>
                <mxCell id="146" value="&lt;span style=&quot;font-family: Helvetica; font-size: 10px; font-style: normal; font-variant-ligatures: normal; font-variant-caps: normal; font-weight: 700; letter-spacing: normal; orphans: 2; text-align: center; text-indent: 0px; text-transform: none; widows: 2; word-spacing: 0px; -webkit-text-stroke-width: 0px; text-decoration-thickness: initial; text-decoration-style: initial; text-decoration-color: initial; float: none; display: inline !important;&quot;&gt;R&lt;br style=&quot;font-size: 10px;&quot;&gt;&lt;/span&gt;" style="text;whiteSpace=wrap;html=1;rotation=0;fontSize=10;labelBackgroundColor=none;fillColor=none;" vertex="1" parent="7">
                    <mxGeometry x="154.25" y="47" width="15" height="20" as="geometry"/>
                </mxCell>
                <mxCell id="147" value="&lt;span style=&quot;font-family: Helvetica; font-size: 10px; font-style: normal; font-variant-ligatures: normal; font-variant-caps: normal; font-weight: 700; letter-spacing: normal; orphans: 2; text-align: center; text-indent: 0px; text-transform: none; widows: 2; word-spacing: 0px; -webkit-text-stroke-width: 0px; text-decoration-thickness: initial; text-decoration-style: initial; text-decoration-color: initial; float: none; display: inline !important;&quot;&gt;R&lt;br style=&quot;font-size: 10px;&quot;&gt;&lt;/span&gt;" style="text;whiteSpace=wrap;html=1;rotation=0;fontSize=10;labelBackgroundColor=none;fillColor=none;" vertex="1" parent="7">
                    <mxGeometry x="238.25" y="72" width="15" height="20" as="geometry"/>
                </mxCell>
                <mxCell id="148" value="&lt;span style=&quot;font-family: Helvetica; font-size: 10px; font-style: normal; font-variant-ligatures: normal; font-variant-caps: normal; font-weight: 700; letter-spacing: normal; orphans: 2; text-align: center; text-indent: 0px; text-transform: none; widows: 2; word-spacing: 0px; -webkit-text-stroke-width: 0px; text-decoration-thickness: initial; text-decoration-style: initial; text-decoration-color: initial; float: none; display: inline !important;&quot;&gt;R&lt;br style=&quot;font-size: 10px;&quot;&gt;&lt;/span&gt;" style="text;whiteSpace=wrap;html=1;rotation=0;fontSize=10;labelBackgroundColor=none;fillColor=none;" vertex="1" parent="7">
                    <mxGeometry x="294.25" y="97" width="15" height="20" as="geometry"/>
                </mxCell>
                <mxCell id="149" value="&lt;span style=&quot;font-family: Helvetica; font-size: 10px; font-style: normal; font-variant-ligatures: normal; font-variant-caps: normal; font-weight: 700; letter-spacing: normal; orphans: 2; text-align: center; text-indent: 0px; text-transform: none; widows: 2; word-spacing: 0px; -webkit-text-stroke-width: 0px; text-decoration-thickness: initial; text-decoration-style: initial; text-decoration-color: initial; float: none; display: inline !important;&quot;&gt;R&lt;br style=&quot;font-size: 10px;&quot;&gt;&lt;/span&gt;" style="text;whiteSpace=wrap;html=1;rotation=0;fontSize=10;labelBackgroundColor=none;fillColor=none;" vertex="1" parent="7">
                    <mxGeometry x="154.25" y="120" width="15" height="20" as="geometry"/>
                </mxCell>
                <mxCell id="150" value="&lt;span style=&quot;font-family: Helvetica; font-size: 10px; font-style: normal; font-variant-ligatures: normal; font-variant-caps: normal; font-weight: 700; letter-spacing: normal; orphans: 2; text-align: center; text-indent: 0px; text-transform: none; widows: 2; word-spacing: 0px; -webkit-text-stroke-width: 0px; text-decoration-thickness: initial; text-decoration-style: initial; text-decoration-color: initial; float: none; display: inline !important;&quot;&gt;R&lt;br style=&quot;font-size: 10px;&quot;&gt;&lt;/span&gt;" style="text;whiteSpace=wrap;html=1;rotation=0;fontSize=10;labelBackgroundColor=none;fillColor=none;" vertex="1" parent="7">
                    <mxGeometry x="199.25" y="120" width="15" height="20" as="geometry"/>
                </mxCell>
                <mxCell id="151" value="&lt;span style=&quot;font-family: Helvetica; font-size: 10px; font-style: normal; font-variant-ligatures: normal; font-variant-caps: normal; font-weight: 700; letter-spacing: normal; orphans: 2; text-align: center; text-indent: 0px; text-transform: none; widows: 2; word-spacing: 0px; -webkit-text-stroke-width: 0px; text-decoration-thickness: initial; text-decoration-style: initial; text-decoration-color: initial; float: none; display: inline !important;&quot;&gt;R&lt;br style=&quot;font-size: 10px;&quot;&gt;&lt;/span&gt;" style="text;whiteSpace=wrap;html=1;rotation=0;fontSize=10;labelBackgroundColor=none;fillColor=none;" vertex="1" parent="7">
                    <mxGeometry x="238.25" y="120" width="15" height="20" as="geometry"/>
                </mxCell>
                <mxCell id="152" value="&lt;span style=&quot;font-family: Helvetica; font-size: 10px; font-style: normal; font-variant-ligatures: normal; font-variant-caps: normal; font-weight: 700; letter-spacing: normal; orphans: 2; text-align: center; text-indent: 0px; text-transform: none; widows: 2; word-spacing: 0px; -webkit-text-stroke-width: 0px; text-decoration-thickness: initial; text-decoration-style: initial; text-decoration-color: initial; float: none; display: inline !important;&quot;&gt;R&lt;br style=&quot;font-size: 10px;&quot;&gt;&lt;/span&gt;" style="text;whiteSpace=wrap;html=1;rotation=0;fontSize=10;labelBackgroundColor=none;fillColor=none;" vertex="1" parent="7">
                    <mxGeometry x="289.25" y="120" width="15" height="20" as="geometry"/>
                </mxCell>
                <mxCell id="153" value="&lt;span style=&quot;font-family: Helvetica; font-size: 10px; font-style: normal; font-variant-ligatures: normal; font-variant-caps: normal; font-weight: 700; letter-spacing: normal; orphans: 2; text-align: center; text-indent: 0px; text-transform: none; widows: 2; word-spacing: 0px; -webkit-text-stroke-width: 0px; text-decoration-thickness: initial; text-decoration-style: initial; text-decoration-color: initial; float: none; display: inline !important;&quot;&gt;R&lt;br style=&quot;font-size: 10px;&quot;&gt;&lt;/span&gt;" style="text;whiteSpace=wrap;html=1;rotation=0;fontSize=10;labelBackgroundColor=none;fillColor=none;" vertex="1" parent="7">
                    <mxGeometry x="199.25" y="180" width="15" height="20" as="geometry"/>
                </mxCell>
                <mxCell id="154" value="&lt;span style=&quot;font-family: Helvetica; font-size: 10px; font-style: normal; font-variant-ligatures: normal; font-variant-caps: normal; font-weight: 700; letter-spacing: normal; orphans: 2; text-align: center; text-indent: 0px; text-transform: none; widows: 2; word-spacing: 0px; -webkit-text-stroke-width: 0px; text-decoration-thickness: initial; text-decoration-style: initial; text-decoration-color: initial; float: none; display: inline !important;&quot;&gt;R&lt;br style=&quot;font-size: 10px;&quot;&gt;&lt;/span&gt;" style="text;whiteSpace=wrap;html=1;rotation=0;fontSize=10;labelBackgroundColor=none;fillColor=none;" vertex="1" parent="7">
                    <mxGeometry x="238.25" y="155" width="15" height="20" as="geometry"/>
                </mxCell>
                <mxCell id="169" value="&lt;span style=&quot;font-family: Helvetica; font-size: 10px; font-style: normal; font-variant-ligatures: normal; font-variant-caps: normal; font-weight: 700; letter-spacing: normal; orphans: 2; text-align: center; text-indent: 0px; text-transform: none; widows: 2; word-spacing: 0px; -webkit-text-stroke-width: 0px; text-decoration-thickness: initial; text-decoration-style: initial; text-decoration-color: initial; float: none; display: inline !important;&quot;&gt;I&lt;br style=&quot;font-size: 10px;&quot;&gt;&lt;/span&gt;" style="text;whiteSpace=wrap;html=1;rotation=0;fontSize=10;labelBackgroundColor=none;fillColor=none;" vertex="1" parent="7">
                    <mxGeometry x="238.25" y="44" width="15" height="20" as="geometry"/>
                </mxCell>
                <mxCell id="170" value="&lt;span style=&quot;font-family: Helvetica; font-size: 10px; font-style: normal; font-variant-ligatures: normal; font-variant-caps: normal; font-weight: 700; letter-spacing: normal; orphans: 2; text-align: center; text-indent: 0px; text-transform: none; widows: 2; word-spacing: 0px; -webkit-text-stroke-width: 0px; text-decoration-thickness: initial; text-decoration-style: initial; text-decoration-color: initial; float: none; display: inline !important;&quot;&gt;I&lt;br style=&quot;font-size: 10px;&quot;&gt;&lt;/span&gt;" style="text;whiteSpace=wrap;html=1;rotation=0;fontSize=10;labelBackgroundColor=none;fillColor=none;" vertex="1" parent="7">
                    <mxGeometry x="241.25" y="96" width="15" height="20" as="geometry"/>
                </mxCell>
                <mxCell id="171" value="&lt;span style=&quot;font-family: Helvetica; font-size: 10px; font-style: normal; font-variant-ligatures: normal; font-variant-caps: normal; font-weight: 700; letter-spacing: normal; orphans: 2; text-align: center; text-indent: 0px; text-transform: none; widows: 2; word-spacing: 0px; -webkit-text-stroke-width: 0px; text-decoration-thickness: initial; text-decoration-style: initial; text-decoration-color: initial; float: none; display: inline !important;&quot;&gt;I&lt;br style=&quot;font-size: 10px;&quot;&gt;&lt;/span&gt;" style="text;whiteSpace=wrap;html=1;rotation=0;fontSize=10;labelBackgroundColor=none;fillColor=none;" vertex="1" parent="7">
                    <mxGeometry x="245.25" y="178" width="15" height="20" as="geometry"/>
                </mxCell>
                <mxCell id="180" value="&lt;span style=&quot;font-family: Helvetica; font-size: 10px; font-style: normal; font-variant-ligatures: normal; font-variant-caps: normal; font-weight: 700; letter-spacing: normal; orphans: 2; text-align: center; text-indent: 0px; text-transform: none; widows: 2; word-spacing: 0px; -webkit-text-stroke-width: 0px; text-decoration-thickness: initial; text-decoration-style: initial; text-decoration-color: initial; float: none; display: inline !important;&quot;&gt;P&lt;br style=&quot;font-size: 10px;&quot;&gt;&lt;/span&gt;" style="text;whiteSpace=wrap;html=1;rotation=0;fontSize=10;labelBackgroundColor=none;fillColor=none;" vertex="1" parent="7">
                    <mxGeometry x="199.25" y="410" width="15" height="20" as="geometry"/>
                </mxCell>
                <mxCell id="181" value="&lt;span style=&quot;font-family: Helvetica; font-size: 10px; font-style: normal; font-variant-ligatures: normal; font-variant-caps: normal; font-weight: 700; letter-spacing: normal; orphans: 2; text-align: center; text-indent: 0px; text-transform: none; widows: 2; word-spacing: 0px; -webkit-text-stroke-width: 0px; text-decoration-thickness: initial; text-decoration-style: initial; text-decoration-color: initial; float: none; display: inline !important;&quot;&gt;P&lt;br style=&quot;font-size: 10px;&quot;&gt;&lt;/span&gt;" style="text;whiteSpace=wrap;html=1;rotation=0;fontSize=10;labelBackgroundColor=none;fillColor=none;" vertex="1" parent="7">
                    <mxGeometry x="294.25" y="390" width="15" height="20" as="geometry"/>
                </mxCell>
                <mxCell id="182" value="&lt;span style=&quot;font-family: Helvetica; font-size: 10px; font-style: normal; font-variant-ligatures: normal; font-variant-caps: normal; font-weight: 700; letter-spacing: normal; orphans: 2; text-align: center; text-indent: 0px; text-transform: none; widows: 2; word-spacing: 0px; -webkit-text-stroke-width: 0px; text-decoration-thickness: initial; text-decoration-style: initial; text-decoration-color: initial; float: none; display: inline !important;&quot;&gt;C&lt;br style=&quot;font-size: 10px;&quot;&gt;&lt;/span&gt;" style="text;whiteSpace=wrap;html=1;rotation=0;fontSize=10;labelBackgroundColor=none;fillColor=none;" vertex="1" parent="7">
                    <mxGeometry x="149.25" y="390" width="15" height="20" as="geometry"/>
                </mxCell>
                <mxCell id="93" value="" style="endArrow=none;html=1;" edge="1" parent="1">
                    <mxGeometry width="50" height="50" relative="1" as="geometry">
                        <mxPoint x="176.9999999999999" y="374" as="sourcePoint"/>
                        <mxPoint x="501" y="374" as="targetPoint"/>
                    </mxGeometry>
                </mxCell>
                <mxCell id="96" value="" style="endArrow=none;html=1;" edge="1" parent="1">
                    <mxGeometry width="50" height="50" relative="1" as="geometry">
                        <mxPoint x="175.9999999999999" y="393" as="sourcePoint"/>
                        <mxPoint x="500" y="393" as="targetPoint"/>
                    </mxGeometry>
                </mxCell>
                <mxCell id="99" value="" style="endArrow=none;html=1;" edge="1" parent="1">
                    <mxGeometry width="50" height="50" relative="1" as="geometry">
                        <mxPoint x="174.9999999999999" y="454" as="sourcePoint"/>
                        <mxPoint x="499" y="454" as="targetPoint"/>
                    </mxGeometry>
                </mxCell>
                <mxCell id="155" value="&lt;span style=&quot;font-family: Helvetica; font-size: 10px; font-style: normal; font-variant-ligatures: normal; font-variant-caps: normal; font-weight: 700; letter-spacing: normal; orphans: 2; text-align: center; text-indent: 0px; text-transform: none; widows: 2; word-spacing: 0px; -webkit-text-stroke-width: 0px; text-decoration-thickness: initial; text-decoration-style: initial; text-decoration-color: initial; float: none; display: inline !important;&quot;&gt;R&lt;br style=&quot;font-size: 10px;&quot;&gt;&lt;/span&gt;" style="text;whiteSpace=wrap;html=1;rotation=0;fontSize=10;labelBackgroundColor=none;fillColor=none;" vertex="1" parent="1">
                    <mxGeometry x="419" y="237" width="15" height="20" as="geometry"/>
                </mxCell>
                <mxCell id="156" value="&lt;span style=&quot;font-family: Helvetica; font-size: 10px; font-style: normal; font-variant-ligatures: normal; font-variant-caps: normal; font-weight: 700; letter-spacing: normal; orphans: 2; text-align: center; text-indent: 0px; text-transform: none; widows: 2; word-spacing: 0px; -webkit-text-stroke-width: 0px; text-decoration-thickness: initial; text-decoration-style: initial; text-decoration-color: initial; float: none; display: inline !important;&quot;&gt;R&lt;br style=&quot;font-size: 10px;&quot;&gt;&lt;/span&gt;" style="text;whiteSpace=wrap;html=1;rotation=0;fontSize=10;labelBackgroundColor=none;fillColor=none;" vertex="1" parent="1">
                    <mxGeometry x="468" y="257" width="15" height="20" as="geometry"/>
                </mxCell>
                <mxCell id="157" value="&lt;span style=&quot;font-family: Helvetica; font-size: 10px; font-style: normal; font-variant-ligatures: normal; font-variant-caps: normal; font-weight: 700; letter-spacing: normal; orphans: 2; text-align: center; text-indent: 0px; text-transform: none; widows: 2; word-spacing: 0px; -webkit-text-stroke-width: 0px; text-decoration-thickness: initial; text-decoration-style: initial; text-decoration-color: initial; float: none; display: inline !important;&quot;&gt;R&lt;br style=&quot;font-size: 10px;&quot;&gt;&lt;/span&gt;" style="text;whiteSpace=wrap;html=1;rotation=0;fontSize=10;labelBackgroundColor=none;fillColor=none;" vertex="1" parent="1">
                    <mxGeometry x="372" y="280" width="15" height="20" as="geometry"/>
                </mxCell>
                <mxCell id="158" value="&lt;span style=&quot;font-family: Helvetica; font-size: 10px; font-style: normal; font-variant-ligatures: normal; font-variant-caps: normal; font-weight: 700; letter-spacing: normal; orphans: 2; text-align: center; text-indent: 0px; text-transform: none; widows: 2; word-spacing: 0px; -webkit-text-stroke-width: 0px; text-decoration-thickness: initial; text-decoration-style: initial; text-decoration-color: initial; float: none; display: inline !important;&quot;&gt;R&lt;br style=&quot;font-size: 10px;&quot;&gt;&lt;/span&gt;" style="text;whiteSpace=wrap;html=1;rotation=0;fontSize=10;labelBackgroundColor=none;fillColor=none;" vertex="1" parent="1">
                    <mxGeometry x="373" y="301" width="15" height="20" as="geometry"/>
                </mxCell>
                <mxCell id="159" value="&lt;span style=&quot;font-family: Helvetica; font-size: 10px; font-style: normal; font-variant-ligatures: normal; font-variant-caps: normal; font-weight: 700; letter-spacing: normal; orphans: 2; text-align: center; text-indent: 0px; text-transform: none; widows: 2; word-spacing: 0px; -webkit-text-stroke-width: 0px; text-decoration-thickness: initial; text-decoration-style: initial; text-decoration-color: initial; float: none; display: inline !important;&quot;&gt;R&lt;br style=&quot;font-size: 10px;&quot;&gt;&lt;/span&gt;" style="text;whiteSpace=wrap;html=1;rotation=0;fontSize=10;labelBackgroundColor=none;fillColor=none;" vertex="1" parent="1">
                    <mxGeometry x="325" y="301" width="15" height="20" as="geometry"/>
                </mxCell>
                <mxCell id="160" value="&lt;span style=&quot;font-family: Helvetica; font-size: 10px; font-style: normal; font-variant-ligatures: normal; font-variant-caps: normal; font-weight: 700; letter-spacing: normal; orphans: 2; text-align: center; text-indent: 0px; text-transform: none; widows: 2; word-spacing: 0px; -webkit-text-stroke-width: 0px; text-decoration-thickness: initial; text-decoration-style: initial; text-decoration-color: initial; float: none; display: inline !important;&quot;&gt;R&lt;br style=&quot;font-size: 10px;&quot;&gt;&lt;/span&gt;" style="text;whiteSpace=wrap;html=1;rotation=0;fontSize=10;labelBackgroundColor=none;fillColor=none;" vertex="1" parent="1">
                    <mxGeometry x="417" y="302" width="15" height="20" as="geometry"/>
                </mxCell>
                <mxCell id="161" value="&lt;span style=&quot;font-family: Helvetica; font-size: 10px; font-style: normal; font-variant-ligatures: normal; font-variant-caps: normal; font-weight: 700; letter-spacing: normal; orphans: 2; text-align: center; text-indent: 0px; text-transform: none; widows: 2; word-spacing: 0px; -webkit-text-stroke-width: 0px; text-decoration-thickness: initial; text-decoration-style: initial; text-decoration-color: initial; float: none; display: inline !important;&quot;&gt;R&lt;br style=&quot;font-size: 10px;&quot;&gt;&lt;/span&gt;" style="text;whiteSpace=wrap;html=1;rotation=0;fontSize=10;labelBackgroundColor=none;fillColor=none;" vertex="1" parent="1">
                    <mxGeometry x="466" y="301" width="15" height="20" as="geometry"/>
                </mxCell>
                <mxCell id="162" value="&lt;span style=&quot;font-family: Helvetica; font-size: 10px; font-style: normal; font-variant-ligatures: normal; font-variant-caps: normal; font-weight: 700; letter-spacing: normal; orphans: 2; text-align: center; text-indent: 0px; text-transform: none; widows: 2; word-spacing: 0px; -webkit-text-stroke-width: 0px; text-decoration-thickness: initial; text-decoration-style: initial; text-decoration-color: initial; float: none; display: inline !important;&quot;&gt;R&lt;br style=&quot;font-size: 10px;&quot;&gt;&lt;/span&gt;" style="text;whiteSpace=wrap;html=1;rotation=0;fontSize=10;labelBackgroundColor=none;fillColor=none;" vertex="1" parent="1">
                    <mxGeometry x="466" y="326" width="15" height="20" as="geometry"/>
                </mxCell>
                <mxCell id="163" value="&lt;span style=&quot;font-family: Helvetica; font-size: 10px; font-style: normal; font-variant-ligatures: normal; font-variant-caps: normal; font-weight: 700; letter-spacing: normal; orphans: 2; text-align: center; text-indent: 0px; text-transform: none; widows: 2; word-spacing: 0px; -webkit-text-stroke-width: 0px; text-decoration-thickness: initial; text-decoration-style: initial; text-decoration-color: initial; float: none; display: inline !important;&quot;&gt;R&lt;br style=&quot;font-size: 10px;&quot;&gt;&lt;/span&gt;" style="text;whiteSpace=wrap;html=1;rotation=0;fontSize=10;labelBackgroundColor=none;fillColor=none;" vertex="1" parent="1">
                    <mxGeometry x="327" y="351" width="15" height="20" as="geometry"/>
                </mxCell>
                <mxCell id="164" value="&lt;span style=&quot;font-family: Helvetica; font-size: 10px; font-style: normal; font-variant-ligatures: normal; font-variant-caps: normal; font-weight: 700; letter-spacing: normal; orphans: 2; text-align: center; text-indent: 0px; text-transform: none; widows: 2; word-spacing: 0px; -webkit-text-stroke-width: 0px; text-decoration-thickness: initial; text-decoration-style: initial; text-decoration-color: initial; float: none; display: inline !important;&quot;&gt;R&lt;br style=&quot;font-size: 10px;&quot;&gt;&lt;/span&gt;" style="text;whiteSpace=wrap;html=1;rotation=0;fontSize=10;labelBackgroundColor=none;fillColor=none;" vertex="1" parent="1">
                    <mxGeometry x="416" y="370" width="15" height="20" as="geometry"/>
                </mxCell>
                <mxCell id="165" value="&lt;span style=&quot;font-family: Helvetica; font-size: 10px; font-style: normal; font-variant-ligatures: normal; font-variant-caps: normal; font-weight: 700; letter-spacing: normal; orphans: 2; text-align: center; text-indent: 0px; text-transform: none; widows: 2; word-spacing: 0px; -webkit-text-stroke-width: 0px; text-decoration-thickness: initial; text-decoration-style: initial; text-decoration-color: initial; float: none; display: inline !important;&quot;&gt;R&lt;br style=&quot;font-size: 10px;&quot;&gt;&lt;/span&gt;" style="text;whiteSpace=wrap;html=1;rotation=0;fontSize=10;labelBackgroundColor=none;fillColor=none;" vertex="1" parent="1">
                    <mxGeometry x="329" y="389" width="15" height="20" as="geometry"/>
                </mxCell>
                <mxCell id="166" value="&lt;span style=&quot;font-family: Helvetica; font-size: 10px; font-style: normal; font-variant-ligatures: normal; font-variant-caps: normal; font-weight: 700; letter-spacing: normal; orphans: 2; text-align: center; text-indent: 0px; text-transform: none; widows: 2; word-spacing: 0px; -webkit-text-stroke-width: 0px; text-decoration-thickness: initial; text-decoration-style: initial; text-decoration-color: initial; float: none; display: inline !important;&quot;&gt;R&lt;br style=&quot;font-size: 10px;&quot;&gt;&lt;/span&gt;" style="text;whiteSpace=wrap;html=1;rotation=0;fontSize=10;labelBackgroundColor=none;fillColor=none;" vertex="1" parent="1">
                    <mxGeometry x="416" y="407" width="15" height="20" as="geometry"/>
                </mxCell>
                <mxCell id="167" value="&lt;span style=&quot;font-family: Helvetica; font-size: 10px; font-style: normal; font-variant-ligatures: normal; font-variant-caps: normal; font-weight: 700; letter-spacing: normal; orphans: 2; text-align: center; text-indent: 0px; text-transform: none; widows: 2; word-spacing: 0px; -webkit-text-stroke-width: 0px; text-decoration-thickness: initial; text-decoration-style: initial; text-decoration-color: initial; float: none; display: inline !important;&quot;&gt;R&lt;br style=&quot;font-size: 10px;&quot;&gt;&lt;/span&gt;" style="text;whiteSpace=wrap;html=1;rotation=0;fontSize=10;labelBackgroundColor=none;fillColor=none;" vertex="1" parent="1">
                    <mxGeometry x="374" y="428" width="15" height="20" as="geometry"/>
                </mxCell>
                <mxCell id="168" value="&lt;span style=&quot;font-family: Helvetica; font-size: 10px; font-style: normal; font-variant-ligatures: normal; font-variant-caps: normal; font-weight: 700; letter-spacing: normal; orphans: 2; text-align: center; text-indent: 0px; text-transform: none; widows: 2; word-spacing: 0px; -webkit-text-stroke-width: 0px; text-decoration-thickness: initial; text-decoration-style: initial; text-decoration-color: initial; float: none; display: inline !important;&quot;&gt;R&lt;br style=&quot;font-size: 10px;&quot;&gt;&lt;/span&gt;" style="text;whiteSpace=wrap;html=1;rotation=0;fontSize=10;labelBackgroundColor=none;fillColor=none;" vertex="1" parent="1">
                    <mxGeometry x="327" y="447" width="15" height="20" as="geometry"/>
                </mxCell>
                <mxCell id="172" value="&lt;span style=&quot;font-family: Helvetica; font-size: 10px; font-style: normal; font-variant-ligatures: normal; font-variant-caps: normal; font-weight: 700; letter-spacing: normal; orphans: 2; text-align: center; text-indent: 0px; text-transform: none; widows: 2; word-spacing: 0px; -webkit-text-stroke-width: 0px; text-decoration-thickness: initial; text-decoration-style: initial; text-decoration-color: initial; float: none; display: inline !important;&quot;&gt;I&lt;br style=&quot;font-size: 10px;&quot;&gt;&lt;/span&gt;" style="text;whiteSpace=wrap;html=1;rotation=0;fontSize=10;labelBackgroundColor=none;fillColor=none;" vertex="1" parent="1">
                    <mxGeometry x="418" y="259" width="15" height="20" as="geometry"/>
                </mxCell>
                <mxCell id="173" value="&lt;span style=&quot;font-family: Helvetica; font-size: 10px; font-style: normal; font-variant-ligatures: normal; font-variant-caps: normal; font-weight: 700; letter-spacing: normal; orphans: 2; text-align: center; text-indent: 0px; text-transform: none; widows: 2; word-spacing: 0px; -webkit-text-stroke-width: 0px; text-decoration-thickness: initial; text-decoration-style: initial; text-decoration-color: initial; float: none; display: inline !important;&quot;&gt;I&lt;br style=&quot;font-size: 10px;&quot;&gt;&lt;/span&gt;" style="text;whiteSpace=wrap;html=1;rotation=0;fontSize=10;labelBackgroundColor=none;fillColor=none;" vertex="1" parent="1">
                    <mxGeometry x="418" y="280" width="15" height="20" as="geometry"/>
                </mxCell>
                <mxCell id="174" value="&lt;span style=&quot;font-family: Helvetica; font-size: 10px; font-style: normal; font-variant-ligatures: normal; font-variant-caps: normal; font-weight: 700; letter-spacing: normal; orphans: 2; text-align: center; text-indent: 0px; text-transform: none; widows: 2; word-spacing: 0px; -webkit-text-stroke-width: 0px; text-decoration-thickness: initial; text-decoration-style: initial; text-decoration-color: initial; float: none; display: inline !important;&quot;&gt;I&lt;br style=&quot;font-size: 10px;&quot;&gt;&lt;/span&gt;" style="text;whiteSpace=wrap;html=1;rotation=0;fontSize=10;labelBackgroundColor=none;fillColor=none;" vertex="1" parent="1">
                    <mxGeometry x="419" y="329" width="15" height="20" as="geometry"/>
                </mxCell>
                <mxCell id="175" value="&lt;span style=&quot;font-family: Helvetica; font-size: 10px; font-style: normal; font-variant-ligatures: normal; font-variant-caps: normal; font-weight: 700; letter-spacing: normal; orphans: 2; text-align: center; text-indent: 0px; text-transform: none; widows: 2; word-spacing: 0px; -webkit-text-stroke-width: 0px; text-decoration-thickness: initial; text-decoration-style: initial; text-decoration-color: initial; float: none; display: inline !important;&quot;&gt;I&lt;br style=&quot;font-size: 10px;&quot;&gt;&lt;/span&gt;" style="text;whiteSpace=wrap;html=1;rotation=0;fontSize=10;labelBackgroundColor=none;fillColor=none;" vertex="1" parent="1">
                    <mxGeometry x="418" y="349" width="15" height="20" as="geometry"/>
                </mxCell>
                <mxCell id="176" value="&lt;span style=&quot;font-family: Helvetica; font-size: 10px; font-style: normal; font-variant-ligatures: normal; font-variant-caps: normal; font-weight: 700; letter-spacing: normal; orphans: 2; text-align: center; text-indent: 0px; text-transform: none; widows: 2; word-spacing: 0px; -webkit-text-stroke-width: 0px; text-decoration-thickness: initial; text-decoration-style: initial; text-decoration-color: initial; float: none; display: inline !important;&quot;&gt;I&lt;br style=&quot;font-size: 10px;&quot;&gt;&lt;/span&gt;" style="text;whiteSpace=wrap;html=1;rotation=0;fontSize=10;labelBackgroundColor=none;fillColor=none;" vertex="1" parent="1">
                    <mxGeometry x="417" y="388" width="15" height="20" as="geometry"/>
                </mxCell>
                <mxCell id="177" value="&lt;span style=&quot;font-family: Helvetica; font-size: 10px; font-style: normal; font-variant-ligatures: normal; font-variant-caps: normal; font-weight: 700; letter-spacing: normal; orphans: 2; text-align: center; text-indent: 0px; text-transform: none; widows: 2; word-spacing: 0px; -webkit-text-stroke-width: 0px; text-decoration-thickness: initial; text-decoration-style: initial; text-decoration-color: initial; float: none; display: inline !important;&quot;&gt;I&lt;br style=&quot;font-size: 10px;&quot;&gt;&lt;/span&gt;" style="text;whiteSpace=wrap;html=1;rotation=0;fontSize=10;labelBackgroundColor=none;fillColor=none;" vertex="1" parent="1">
                    <mxGeometry x="418" y="430" width="15" height="20" as="geometry"/>
                </mxCell>
                <mxCell id="178" value="&lt;span style=&quot;font-family: Helvetica; font-size: 10px; font-style: normal; font-variant-ligatures: normal; font-variant-caps: normal; font-weight: 700; letter-spacing: normal; orphans: 2; text-align: center; text-indent: 0px; text-transform: none; widows: 2; word-spacing: 0px; -webkit-text-stroke-width: 0px; text-decoration-thickness: initial; text-decoration-style: initial; text-decoration-color: initial; float: none; display: inline !important;&quot;&gt;I&lt;br style=&quot;font-size: 10px;&quot;&gt;&lt;/span&gt;" style="text;whiteSpace=wrap;html=1;rotation=0;fontSize=10;labelBackgroundColor=none;fillColor=none;" vertex="1" parent="1">
                    <mxGeometry x="416" y="449" width="15" height="20" as="geometry"/>
                </mxCell>
                <mxCell id="179" value="&lt;span style=&quot;font-family: Helvetica; font-size: 10px; font-style: normal; font-variant-ligatures: normal; font-variant-caps: normal; font-weight: 700; letter-spacing: normal; orphans: 2; text-align: center; text-indent: 0px; text-transform: none; widows: 2; word-spacing: 0px; -webkit-text-stroke-width: 0px; text-decoration-thickness: initial; text-decoration-style: initial; text-decoration-color: initial; float: none; display: inline !important;&quot;&gt;I&lt;br style=&quot;font-size: 10px;&quot;&gt;&lt;/span&gt;" style="text;whiteSpace=wrap;html=1;rotation=0;fontSize=10;labelBackgroundColor=none;fillColor=none;" vertex="1" parent="1">
                    <mxGeometry x="471" y="450" width="15" height="20" as="geometry"/>
                </mxCell>
                <mxCell id="183" value="&lt;span style=&quot;font-family: Helvetica; font-size: 10px; font-style: normal; font-variant-ligatures: normal; font-variant-caps: normal; font-weight: 700; letter-spacing: normal; orphans: 2; text-align: center; text-indent: 0px; text-transform: none; widows: 2; word-spacing: 0px; -webkit-text-stroke-width: 0px; text-decoration-thickness: initial; text-decoration-style: initial; text-decoration-color: initial; float: none; display: inline !important;&quot;&gt;I&lt;br style=&quot;font-size: 10px;&quot;&gt;&lt;/span&gt;" style="text;whiteSpace=wrap;html=1;rotation=0;fontSize=10;labelBackgroundColor=none;fillColor=none;" vertex="1" parent="1">
                    <mxGeometry x="467" y="407" width="15" height="20" as="geometry"/>
                </mxCell>
                <mxCell id="184" value="&lt;span style=&quot;font-family: Helvetica; font-size: 10px; font-style: normal; font-variant-ligatures: normal; font-variant-caps: normal; font-weight: 700; letter-spacing: normal; orphans: 2; text-align: center; text-indent: 0px; text-transform: none; widows: 2; word-spacing: 0px; -webkit-text-stroke-width: 0px; text-decoration-thickness: initial; text-decoration-style: initial; text-decoration-color: initial; float: none; display: inline !important;&quot;&gt;I&lt;br style=&quot;font-size: 10px;&quot;&gt;&lt;/span&gt;" style="text;whiteSpace=wrap;html=1;rotation=0;fontSize=10;labelBackgroundColor=none;fillColor=none;" vertex="1" parent="1">
                    <mxGeometry x="374" y="406" width="15" height="20" as="geometry"/>
                </mxCell>
                <mxCell id="185" value="&lt;span style=&quot;font-family: Helvetica; font-size: 10px; font-style: normal; font-variant-ligatures: normal; font-variant-caps: normal; font-weight: 700; letter-spacing: normal; orphans: 2; text-align: center; text-indent: 0px; text-transform: none; widows: 2; word-spacing: 0px; -webkit-text-stroke-width: 0px; text-decoration-thickness: initial; text-decoration-style: initial; text-decoration-color: initial; float: none; display: inline !important;&quot;&gt;I&lt;br style=&quot;font-size: 10px;&quot;&gt;&lt;/span&gt;" style="text;whiteSpace=wrap;html=1;rotation=0;fontSize=10;labelBackgroundColor=none;fillColor=none;" vertex="1" parent="1">
                    <mxGeometry x="332" y="408" width="15" height="20" as="geometry"/>
                </mxCell>
                <mxCell id="186" value="&lt;span style=&quot;font-family: Helvetica; font-size: 10px; font-style: normal; font-variant-ligatures: normal; font-variant-caps: normal; font-weight: 700; letter-spacing: normal; orphans: 2; text-align: center; text-indent: 0px; text-transform: none; widows: 2; word-spacing: 0px; -webkit-text-stroke-width: 0px; text-decoration-thickness: initial; text-decoration-style: initial; text-decoration-color: initial; float: none; display: inline !important;&quot;&gt;P&lt;br style=&quot;font-size: 10px;&quot;&gt;&lt;/span&gt;" style="text;whiteSpace=wrap;html=1;rotation=0;fontSize=10;labelBackgroundColor=none;fillColor=none;" vertex="1" parent="1">
                    <mxGeometry x="375" y="390" width="15" height="20" as="geometry"/>
                </mxCell>
                <mxCell id="187" value="&lt;span style=&quot;font-family: Helvetica; font-size: 10px; font-style: normal; font-variant-ligatures: normal; font-variant-caps: normal; font-weight: 700; letter-spacing: normal; orphans: 2; text-align: center; text-indent: 0px; text-transform: none; widows: 2; word-spacing: 0px; -webkit-text-stroke-width: 0px; text-decoration-thickness: initial; text-decoration-style: initial; text-decoration-color: initial; float: none; display: inline !important;&quot;&gt;C&lt;br style=&quot;font-size: 10px;&quot;&gt;&lt;/span&gt;" style="text;whiteSpace=wrap;html=1;rotation=0;fontSize=10;labelBackgroundColor=none;fillColor=none;" vertex="1" parent="1">
                    <mxGeometry x="466" y="388" width="15" height="20" as="geometry"/>
                </mxCell>
                <mxCell id="188" value="&lt;span style=&quot;font-family: Helvetica; font-size: 10px; font-style: normal; font-variant-ligatures: normal; font-variant-caps: normal; font-weight: 700; letter-spacing: normal; orphans: 2; text-align: center; text-indent: 0px; text-transform: none; widows: 2; word-spacing: 0px; -webkit-text-stroke-width: 0px; text-decoration-thickness: initial; text-decoration-style: initial; text-decoration-color: initial; float: none; display: inline !important;&quot;&gt;P&lt;br style=&quot;font-size: 10px;&quot;&gt;&lt;/span&gt;" style="text;whiteSpace=wrap;html=1;rotation=0;fontSize=10;labelBackgroundColor=none;fillColor=none;" vertex="1" parent="1">
                    <mxGeometry x="371" y="370" width="15" height="20" as="geometry"/>
                </mxCell>
                <mxCell id="189" value="&lt;span style=&quot;font-family: Helvetica; font-size: 10px; font-style: normal; font-variant-ligatures: normal; font-variant-caps: normal; font-weight: 700; letter-spacing: normal; orphans: 2; text-align: center; text-indent: 0px; text-transform: none; widows: 2; word-spacing: 0px; -webkit-text-stroke-width: 0px; text-decoration-thickness: initial; text-decoration-style: initial; text-decoration-color: initial; float: none; display: inline !important;&quot;&gt;P&lt;br style=&quot;font-size: 10px;&quot;&gt;&lt;/span&gt;" style="text;whiteSpace=wrap;html=1;rotation=0;fontSize=10;labelBackgroundColor=none;fillColor=none;" vertex="1" parent="1">
                    <mxGeometry x="327" y="370" width="15" height="20" as="geometry"/>
                </mxCell>
                <mxCell id="190" value="&lt;span style=&quot;font-family: Helvetica; font-size: 10px; font-style: normal; font-variant-ligatures: normal; font-variant-caps: normal; font-weight: 700; letter-spacing: normal; orphans: 2; text-align: center; text-indent: 0px; text-transform: none; widows: 2; word-spacing: 0px; -webkit-text-stroke-width: 0px; text-decoration-thickness: initial; text-decoration-style: initial; text-decoration-color: initial; float: none; display: inline !important;&quot;&gt;P&lt;br style=&quot;font-size: 10px;&quot;&gt;&lt;/span&gt;" style="text;whiteSpace=wrap;html=1;rotation=0;fontSize=10;labelBackgroundColor=none;fillColor=none;" vertex="1" parent="1">
                    <mxGeometry x="469" y="371" width="15" height="20" as="geometry"/>
                </mxCell>
            </root>
        </mxGraphModel>
    </diagram>
</mxfile>